<svg xmlns="http://www.w3.org/2000/svg" viewBox="0 0 1400 548" width="1400" height="548" role="img" aria-labelledby="t-05-current d-05-current">
<title id="t-05-current">05 Current-state journey map and service blueprint</title>
<desc id="d-05-current">What does one Test of Details feel like today, stage by stage, what happens behind the auditor and what changes when agents join? Decisions fed: D-09. Status: Draft. Reconstructed for portfolio purposes. The process, decisions and role are real. Screens, data, names and figures are illustrative and do not depict the production product.</desc>

<style>
@font-face{font-family:"Plex Sans";font-weight:400;src:url("../../../../shared/vendor/fonts/plex/IBMPlexSans-Regular-Latin1.woff2") format("woff2")}
@font-face{font-family:"Plex Sans";font-weight:600;src:url("../../../../shared/vendor/fonts/plex/IBMPlexSans-SemiBold-Latin1.woff2") format("woff2")}
@font-face{font-family:"Plex Mono";font-weight:400;src:url("../../../../shared/vendor/fonts/plex/IBMPlexMono-Regular-Latin1.woff2") format("woff2")}
svg:root{--bt-surface:#FFFFFF;--bt-surface-2:#F3F5F8;--bt-surface-3:#E8EBF0;--bt-border:#CFD5DD;--bt-ink:#14181F;--bt-ink-2:#4A5361;--bt-ink-3:#687180;--bt-brand:#3B4FD8;--bt-brand-tint:#E8EBFB;--bt-agent:#0E7C7B;--bt-agent-tint:#DDF3F2;--bt-review:#8E5F00;--bt-review-tint:#FBF0D6;--bt-approved:#1F7A3D;--bt-approved-tint:#DFF3E5;--bt-edited:#6941C6;--bt-edited-tint:#EEE8FB;--bt-failed:#B42318;--bt-failed-tint:#FBE3E0;--bt-font-sans:"Plex Sans",system-ui,sans-serif;--bt-font-mono:"Plex Mono",ui-monospace,monospace;background:var(--bt-surface)}
@media (prefers-color-scheme:dark){svg:root{--bt-surface:#0F1319;--bt-surface-2:#171C24;--bt-surface-3:#1F2630;--bt-border:#2C343F;--bt-ink:#E6EAF0;--bt-ink-2:#A5AEBB;--bt-ink-3:#7E8794;--bt-brand:#8FA0FF;--bt-brand-tint:#1C2347;--bt-agent:#5FD3CF;--bt-agent-tint:#103A3A;--bt-review:#E8B84A;--bt-review-tint:#3D2E0A;--bt-approved:#6CCB8A;--bt-approved-tint:#0F3320;--bt-edited:#B69CFF;--bt-edited-tint:#2A1F4D;--bt-failed:#FF8A80;--bt-failed-tint:#4A1612}}
.ink{fill:var(--bt-ink)}.ink2{fill:var(--bt-ink-2)}.ink3{fill:var(--bt-ink-3)}.surf{fill:var(--bt-surface)}.surf2{fill:var(--bt-surface-2)}.surf3{fill:var(--bt-surface-3)}
.hair{stroke:var(--bt-border);fill:none}.stroke{stroke:var(--bt-ink);fill:none}.stroke2{stroke:var(--bt-ink-2);fill:none}
.brand{fill:var(--bt-brand)}.brand-s{stroke:var(--bt-brand);fill:none}.brand-t{fill:var(--bt-brand-tint)}
.agent{fill:var(--bt-agent)}.agent-s{stroke:var(--bt-agent);fill:none}.agent-t{fill:var(--bt-agent-tint)}
.review{fill:var(--bt-review)}.review-t{fill:var(--bt-review-tint)}.approved{fill:var(--bt-approved)}.approved-t{fill:var(--bt-approved-tint)}
.edited{fill:var(--bt-edited)}.edited-t{fill:var(--bt-edited-tint)}.failed{fill:var(--bt-failed)}.failed-s{stroke:var(--bt-failed);fill:none}.failed-t{fill:var(--bt-failed-tint)}
text{font-family:var(--bt-font-sans);font-size:12px;fill:var(--bt-ink)}text.mono{font-family:var(--bt-font-mono)}text.t11{font-size:11px}text.t10{font-size:10px}text.t14{font-size:14px;font-weight:600}text.t16{font-size:16px;font-weight:600}text.b{font-weight:600}
</style>
<g class="svg-head" data-h="110">
<rect x="0" y="0" width="1400" height="110" class="surf2"/><line x1="0" y1="110" x2="1400" y2="110" class="hair"/>
<text x="16" y="26" class="t16">05 Current-state journey map and service blueprint</text>
<text class="t11 ink2"><tspan x="16" y="46">Question: What does one Test of Details feel like today, stage by stage, what happens behind the auditor and what</tspan><tspan x="16" y="58">changes when agents join?</tspan></text>
<text x="16" y="78" class="t11 ink2">Feeds: D-09  |  Status: Draft</text>
<text class="t11 ink2"><tspan x="756" y="22">I decided: to map one Test of Details through the Senior's eyes, to put the emotion curve where the</tspan><tspan x="756" y="35">deadline bites and to place the mandatory checkpoints where judgment lives.</tspan></text>
<text class="t11 ink2"><tspan x="756" y="56">We built: the maps in two workshop sessions with the design team and the methodology reviewer role;</tspan><tspan x="756" y="69">the backstage rows with the engagement data lead role. Design team of three at this phase.</tspan></text>
<text x="16" y="104" class="t10 ink2">Reconstructed for portfolio purposes. The process, decisions and role are real. Screens, data, names and figures are illustrative and do not depict the production product.</text>
</g>
<text x="16" y="134" class="t11 ink2 b">CURRENT-STATE JOURNEY. LENS: ENGAGEMENT SENIOR (DANA WHITLOCK, P1) RUNNING ONE TEST OF DETAILS ON REVENUE. MANAGER AND PARTNER ENTER AT REVIEW AND SIGN.</text>
<rect x="150" y="144" width="1234" height="24" class="surf2"/>
<text x="218.55555555555554" y="160" class="t11 b" text-anchor="middle">Plan</text><line x1="150" y1="144" x2="150" y2="168" class="hair"/>
<text x="355.66666666666663" y="160" class="t11 b" text-anchor="middle">Assess risk</text><line x1="287.1111111111111" y1="144" x2="287.1111111111111" y2="168" class="hair"/>
<text x="492.77777777777777" y="160" class="t11 b" text-anchor="middle">Design procedures</text><line x1="424.22222222222223" y1="144" x2="424.22222222222223" y2="168" class="hair"/>
<text x="629.8888888888889" y="160" class="t11 b" text-anchor="middle">Gather evidence</text><line x1="561.3333333333334" y1="144" x2="561.3333333333334" y2="168" class="hair"/>
<text x="767" y="160" class="t11 b" text-anchor="middle">Test</text><line x1="698.4444444444445" y1="144" x2="698.4444444444445" y2="168" class="hair"/>
<text x="904.1111111111111" y="160" class="t11 b" text-anchor="middle">Evaluate exceptions</text><line x1="835.5555555555555" y1="144" x2="835.5555555555555" y2="168" class="hair"/>
<text x="1041.2222222222224" y="160" class="t11 b" text-anchor="middle">Conclude</text><line x1="972.6666666666667" y1="144" x2="972.6666666666667" y2="168" class="hair"/>
<text x="1178.3333333333335" y="160" class="t11 b" text-anchor="middle">Review</text><line x1="1109.7777777777778" y1="144" x2="1109.7777777777778" y2="168" class="hair"/>
<text x="1315.4444444444446" y="160" class="t11 b" text-anchor="middle">Sign</text><line x1="1246.888888888889" y1="144" x2="1246.888888888889" y2="168" class="hair"/>
<text class="t11 ink2 b"><tspan x="16" y="186">FEELING</tspan><tspan x="16" y="198">(RECONSTRUCTED)</tspan></text>
<line x1="150" y1="235" x2="1384" y2="235" class="hair" stroke-dasharray="2 3"/><text x="144" y="239" class="t10 ink3" text-anchor="end">-2</text>
<line x1="150" y1="207" x2="1384" y2="207" class="hair" /><text x="144" y="211" class="t10 ink3" text-anchor="end">0</text>
<line x1="150" y1="179" x2="1384" y2="179" class="hair" stroke-dasharray="2 3"/><text x="144" y="183" class="t10 ink3" text-anchor="end">+2</text>
<polyline points="218.55555555555554,207 355.66666666666663,207 492.77777777777777,207 629.8888888888889,221 767,235 904.1111111111111,221 1041.2222222222224,221 1178.3333333333335,235 1315.4444444444446,221" class="failed-s" stroke-width="2" />
<circle cx="218.55555555555554" cy="207" r="4" class="failed"/><text x="218.55555555555554" y="199" class="t10 ink2" text-anchor="middle">steady</text>
<circle cx="355.66666666666663" cy="207" r="4" class="failed"/><text x="355.66666666666663" y="199" class="t10 ink2" text-anchor="middle">steady</text>
<circle cx="492.77777777777777" cy="207" r="4" class="failed"/><text x="492.77777777777777" y="199" class="t10 ink2" text-anchor="middle">steady</text>
<circle cx="629.8888888888889" cy="221" r="4" class="failed"/><text x="629.8888888888889" y="235" class="t10 ink2" text-anchor="middle">uneasy</text>
<circle cx="767" cy="235" r="4" class="failed"/><text x="767" y="249" class="t10 ink2" text-anchor="middle">strained</text>
<circle cx="904.1111111111111" cy="221" r="4" class="failed"/><text x="904.1111111111111" y="235" class="t10 ink2" text-anchor="middle">uneasy</text>
<circle cx="1041.2222222222224" cy="221" r="4" class="failed"/><text x="1041.2222222222224" y="235" class="t10 ink2" text-anchor="middle">uneasy</text>
<circle cx="1178.3333333333335" cy="235" r="4" class="failed"/><text x="1178.3333333333335" y="249" class="t10 ink2" text-anchor="middle">strained</text>
<circle cx="1315.4444444444446" cy="221" r="4" class="failed"/><text x="1315.4444444444446" y="235" class="t10 ink2" text-anchor="middle">uneasy</text>
<line x1="16" y1="322" x2="1384" y2="322" class="hair"/>
<text class="t11 ink2 b"><tspan x="16" y="264">DOING</tspan></text>
<line x1="150" y1="248" x2="150" y2="322" class="hair"/>
<text class="t11"><tspan x="156" y="264">Scope the area. Pick</tspan><tspan x="156" y="277">procedures from the</tspan><tspan x="156" y="290">methodology. Set</tspan><tspan x="156" y="303">sample sizes.</tspan></text>
<line x1="287.1111111111111" y1="248" x2="287.1111111111111" y2="322" class="hair"/>
<text class="t11"><tspan x="293.1111111111111" y="264">Rate assertions by</tspan><tspan x="293.1111111111111" y="277">risk with the manager.</tspan><tspan x="293.1111111111111" y="290">Set thresholds.</tspan></text>
<line x1="424.22222222222223" y1="248" x2="424.22222222222223" y2="322" class="hair"/>
<text class="t11"><tspan x="430.22222222222223" y="264">Pick the Test of</tspan><tspan x="430.22222222222223" y="277">Details structure.</tspan><tspan x="430.22222222222223" y="290">Define population and</tspan><tspan x="430.22222222222223" y="303">sample method.</tspan></text>
<line x1="561.3333333333334" y1="248" x2="561.3333333333334" y2="322" class="hair"/>
<text class="t11"><tspan x="567.3333333333334" y="264">Raise client requests.</tspan><tspan x="567.3333333333334" y="277">Chase. Open three</tspan><tspan x="567.3333333333334" y="290">systems to find one</tspan><tspan x="567.3333333333334" y="303">document.</tspan></text>
<line x1="698.4444444444445" y1="248" x2="698.4444444444445" y2="322" class="hair"/>
<text class="t11"><tspan x="704.4444444444445" y="264">Trace each sampled</tspan><tspan x="704.4444444444445" y="277">item field by field.</tspan><tspan x="704.4444444444445" y="290">Record results.</tspan></text>
<line x1="835.5555555555555" y1="248" x2="835.5555555555555" y2="322" class="hair"/>
<text class="t11"><tspan x="841.5555555555555" y="264">Investigate</tspan><tspan x="841.5555555555555" y="277">differences. Call the</tspan><tspan x="841.5555555555555" y="290">client. Document.</tspan></text>
<line x1="972.6666666666667" y1="248" x2="972.6666666666667" y2="322" class="hair"/>
<text class="t11"><tspan x="978.6666666666667" y="264">Draft the conclusion.</tspan><tspan x="978.6666666666667" y="277">Link references.</tspan></text>
<line x1="1109.7777777777778" y1="248" x2="1109.7777777777778" y2="322" class="hair"/>
<text class="t11"><tspan x="1115.7777777777778" y="264">Wait. Clear notes.</tspan><tspan x="1115.7777777777778" y="277">Clear them again.</tspan></text>
<line x1="1246.888888888889" y1="248" x2="1246.888888888889" y2="322" class="hair"/>
<text class="t11"><tspan x="1252.888888888889" y="264">Prepare the partner</tspan><tspan x="1252.888888888889" y="277">walkthrough.</tspan></text>
<line x1="16" y1="370" x2="1384" y2="370" class="hair"/>
<text class="t11 ink2 b"><tspan x="16" y="338">THINKING</tspan></text>
<line x1="150" y1="322" x2="150" y2="370" class="hair"/>
<text class="t11 ink2"><tspan x="156" y="338">&quot;Which structure fits</tspan><tspan x="156" y="351">this client this</tspan><tspan x="156" y="364">year?&quot;</tspan></text>
<line x1="287.1111111111111" y1="322" x2="287.1111111111111" y2="370" class="hair"/>
<text class="t11 ink2"><tspan x="293.1111111111111" y="338">&quot;Where did last year's</tspan><tspan x="293.1111111111111" y="351">exceptions come from?&quot;</tspan></text>
<line x1="424.22222222222223" y1="322" x2="424.22222222222223" y2="370" class="hair"/>
<text class="t11 ink2"><tspan x="430.22222222222223" y="338">&quot;Will the reviewer</tspan><tspan x="430.22222222222223" y="351">accept this</tspan><tspan x="430.22222222222223" y="364">structure?&quot;</tspan></text>
<line x1="561.3333333333334" y1="322" x2="561.3333333333334" y2="370" class="hair"/>
<text class="t11 ink2"><tspan x="567.3333333333334" y="338">&quot;Where is that</tspan><tspan x="567.3333333333334" y="351">statement? Is this the</tspan><tspan x="567.3333333333334" y="364">right version?&quot;</tspan></text>
<line x1="698.4444444444445" y1="322" x2="698.4444444444445" y2="370" class="hair"/>
<text class="t11 ink2"><tspan x="704.4444444444445" y="338">&quot;Same five fields,</tspan><tspan x="704.4444444444445" y="351">item after item.&quot;</tspan></text>
<line x1="835.5555555555555" y1="322" x2="835.5555555555555" y2="370" class="hair"/>
<text class="t11 ink2"><tspan x="841.5555555555555" y="338">&quot;Is this a</tspan><tspan x="841.5555555555555" y="351">misstatement or an</tspan><tspan x="841.5555555555555" y="364">explanation?&quot;</tspan></text>
<line x1="972.6666666666667" y1="322" x2="972.6666666666667" y2="370" class="hair"/>
<text class="t11 ink2"><tspan x="978.6666666666667" y="338">&quot;What wording survives</tspan><tspan x="978.6666666666667" y="351">review?&quot;</tspan></text>
<line x1="1109.7777777777778" y1="322" x2="1109.7777777777778" y2="370" class="hair"/>
<text class="t11 ink2"><tspan x="1115.7777777777778" y="338">&quot;Why is this note</tspan><tspan x="1115.7777777777778" y="351">back?&quot;</tspan></text>
<line x1="1246.888888888889" y1="322" x2="1246.888888888889" y2="370" class="hair"/>
<text class="t11 ink2"><tspan x="1252.888888888889" y="338">&quot;Will she ask for the</tspan><tspan x="1252.888888888889" y="351">exception trail?&quot;</tspan></text>
<rect x="16" y="370" width="1368" height="86" class="surf2" opacity="0.6"/>
<line x1="16" y1="456" x2="1384" y2="456" class="hair"/>
<text class="t11 ink2 b"><tspan x="16" y="386">PAIN</tspan></text>
<line x1="150" y1="370" x2="150" y2="456" class="hair"/>
<text class="t11"><tspan x="156" y="386">Structures adapted by</tspan><tspan x="156" y="399">hand before work</tspan><tspan x="156" y="412">starts (T13).</tspan></text>
<line x1="287.1111111111111" y1="370" x2="287.1111111111111" y2="456" class="hair"/>
<text class="t11"><tspan x="293.1111111111111" y="386">Prior-year context</tspan><tspan x="293.1111111111111" y="399">lives in people, not</tspan><tspan x="293.1111111111111" y="412">the file (T11).</tspan></text>
<line x1="424.22222222222223" y1="370" x2="424.22222222222223" y2="456" class="hair"/>
<text class="t11"><tspan x="430.22222222222223" y="386">Local variants cause</tspan><tspan x="430.22222222222223" y="399">review notes later</tspan><tspan x="430.22222222222223" y="412">(T13, T10).</tspan></text>
<line x1="561.3333333333334" y1="370" x2="561.3333333333334" y2="456" class="hair"/>
<text class="t11"><tspan x="567.3333333333334" y="386">Locating costs more</tspan><tspan x="567.3333333333334" y="399">than judging (T1).</tspan><tspan x="567.3333333333334" y="412">Data limits known</tspan><tspan x="567.3333333333334" y="425">unevenly (T9).</tspan></text>
<line x1="698.4444444444445" y1="370" x2="698.4444444444445" y2="456" class="hair"/>
<text class="t11"><tspan x="704.4444444444445" y="386">The repetitive core</tspan><tspan x="704.4444444444445" y="399">(T2). Attention fades</tspan><tspan x="704.4444444444445" y="412">late. Interruptions</tspan><tspan x="704.4444444444445" y="425">restart the trace</tspan><tspan x="704.4444444444445" y="438">(T11).</tspan></text>
<line x1="835.5555555555555" y1="370" x2="835.5555555555555" y2="456" class="hair"/>
<text class="t11"><tspan x="841.5555555555555" y="386">Context assembled by</tspan><tspan x="841.5555555555555" y="399">hand before judgment</tspan><tspan x="841.5555555555555" y="412">can start (T6).</tspan></text>
<line x1="972.6666666666667" y1="370" x2="972.6666666666667" y2="456" class="hair"/>
<text class="t11"><tspan x="978.6666666666667" y="386">Rework originates in</tspan><tspan x="978.6666666666667" y="399">references and wording</tspan><tspan x="978.6666666666667" y="412">(T4).</tspan></text>
<line x1="1109.7777777777778" y1="370" x2="1109.7777777777778" y2="456" class="hair"/>
<text class="t11"><tspan x="1115.7777777777778" y="386">Latency compounds</tspan><tspan x="1115.7777777777778" y="399">(T5). Reviewer decodes</tspan><tspan x="1115.7777777777778" y="412">format before</tspan><tspan x="1115.7777777777778" y="425">substance (T10).</tspan><tspan x="1115.7777777777778" y="438">Source first (T3).</tspan></text>
<line x1="1246.888888888889" y1="370" x2="1246.888888888889" y2="456" class="hair"/>
<text class="t11"><tspan x="1252.888888888889" y="386">If it is wrong, it is</tspan><tspan x="1252.888888888889" y="399">my name (T8, E-13).</tspan><tspan x="1252.888888888889" y="412">The trail is spread</tspan><tspan x="1252.888888888889" y="425">across workpapers and</tspan><tspan x="1252.888888888889" y="438">emails (T8, E-23).</tspan></text>
<line x1="16" y1="516" x2="1384" y2="516" class="hair"/>
<text class="t11 ink2 b"><tspan x="16" y="472">OPPORTUNITY</tspan></text>
<line x1="150" y1="456" x2="150" y2="516" class="hair"/>
<text class="t11"><tspan x="156" y="472">Plan against a typed</tspan><tspan x="156" y="485">structure from the</tspan><tspan x="156" y="498">library.</tspan></text>
<line x1="287.1111111111111" y1="456" x2="287.1111111111111" y2="516" class="hair"/>
<text class="t11"><tspan x="293.1111111111111" y="472">Prior-year exceptions</tspan><tspan x="293.1111111111111" y="485">surfaced per</tspan><tspan x="293.1111111111111" y="498">assertion.</tspan></text>
<line x1="424.22222222222223" y1="456" x2="424.22222222222223" y2="516" class="hair"/>
<text class="t11"><tspan x="430.22222222222223" y="472">A library with fit</tspan><tspan x="430.22222222222223" y="485">rules; no in-place</tspan><tspan x="430.22222222222223" y="498">edits.</tspan></text>
<line x1="561.3333333333334" y1="456" x2="561.3333333333334" y2="516" class="hair"/>
<text class="t11"><tspan x="567.3333333333334" y="472">Agent retrieval within</tspan><tspan x="567.3333333333334" y="485">data classes, with a</tspan><tspan x="567.3333333333334" y="498">record of what was</tspan><tspan x="567.3333333333334" y="511">read.</tspan></text>
<line x1="698.4444444444445" y1="456" x2="698.4444444444445" y2="516" class="hair"/>
<text class="t11"><tspan x="704.4444444444445" y="472">Agent extraction and</tspan><tspan x="704.4444444444445" y="485">matching. Auditor on</tspan><tspan x="704.4444444444445" y="498">the differences.</tspan></text>
<line x1="835.5555555555555" y1="456" x2="835.5555555555555" y2="516" class="hair"/>
<text class="t11"><tspan x="841.5555555555555" y="472">An exception workbench</tspan><tspan x="841.5555555555555" y="485">with evidence</tspan><tspan x="841.5555555555555" y="498">attached.</tspan></text>
<line x1="972.6666666666667" y1="456" x2="972.6666666666667" y2="516" class="hair"/>
<text class="t11"><tspan x="978.6666666666667" y="472">Draft with references</tspan><tspan x="978.6666666666667" y="485">in place. Edits</tspan><tspan x="978.6666666666667" y="498">recorded as a diff.</tspan></text>
<line x1="1109.7777777777778" y1="456" x2="1109.7777777777778" y2="516" class="hair"/>
<text class="t11"><tspan x="1115.7777777777778" y="472">A review center with</tspan><tspan x="1115.7777777777778" y="485">state and provenance</tspan><tspan x="1115.7777777777778" y="498">in view.</tspan></text>
<line x1="1246.888888888889" y1="456" x2="1246.888888888889" y2="516" class="hair"/>
<text class="t11"><tspan x="1252.888888888889" y="472">Exception trail and</tspan><tspan x="1252.888888888889" y="485">checkpoint record in</tspan><tspan x="1252.888888888889" y="498">the file.</tspan></text>
<text x="16" y="534" class="t11 ink2">Reconstructed from the themes in 03. Emotion values are my reading of the evidence on a five-point scale, not a measurement. Future-state feeling is design intent.</text>
</svg>